<svg height="60" viewBox="0 0 60 60" width="60" xmlns="http://www.w3.org/2000/svg"><g fill="none" fill-rule="evenodd"><path d="m17.306 0h25.388c6.018 0 8.2.627 10.4 1.803a12.267 12.267 0 0 1 5.103 5.103c1.176 2.2 1.803 4.382 1.803 10.4v25.388c0 6.018-.627 8.2-1.803 10.4a12.267 12.267 0 0 1 -5.103 5.103c-2.2 1.176-4.382 1.803-10.4 1.803h-25.388c-6.018 0-8.2-.627-10.4-1.803a12.267 12.267 0 0 1 -5.103-5.103c-1.176-2.2-1.803-4.382-1.803-10.4v-25.388c0-6.018.627-8.2 1.803-10.4a12.267 12.267 0 0 1 5.103-5.103c2.2-1.176 4.382-1.803 10.4-1.803z" fill="#007aff"/><path d="m29.6 24.596a1.2 1.2 0 1 0 0-2.4 1.2 1.2 0 0 0 0 2.4zm2.4 7.2a1.2 1.2 0 1 0 0-2.4 1.2 1.2 0 0 0 0 2.4zm-7.8 9.6a1.2 1.2 0 1 0 0-2.4 1.2 1.2 0 0 0 0 2.4zm9.6 3a2.4 2.4 0 1 0 0-4.8 2.4 2.4 0 0 0 0 4.8zm5.977-8.996-4.463-8.97a3 3 0 0 1 -.314-1.339v-12.495h-9.6v12.496a3 3 0 0 1 -.314 1.336l-4.462 8.972m22.214 6.15-3.06-6.15h-19.155l-3.06 6.152a4.766 4.766 0 0 0 -.506 2.988 4.91 4.91 0 0 0 4.903 4.06h16.465a4.92 4.92 0 0 0 4.963-4.464 4.762 4.762 0 0 0 -.55-2.584zm-19.238-28.953h13.2" stroke="#fff" stroke-linecap="round" stroke-linejoin="round" stroke-width="1.8"/></g></svg>