<svg xmlns="http://www.w3.org/2000/svg" width="35" height="35" viewBox="0 0 35 35">
    <path fill="#73FDEA" d="M10.728 0c2.071 0 3.916.451 5.534 1.354 1.618.902 2.897 2.127 3.835 3.674.883 1.456 1.351 3.126 1.403 5.01l.005.356v14.792c0 .516.13.991.388 1.427.26.435.59.773.995 1.015.405.241.85.362 1.335.362.518 0 .995-.12 1.432-.362.437-.242.785-.58 1.044-1.015.227-.381.354-.793.382-1.235l.006-.192-.042-14.845H35v14.265c0 1.999-.47 3.787-1.408 5.366-.938 1.58-2.217 2.812-3.835 3.699C28.14 34.557 26.311 35 24.272 35s-3.867-.443-5.486-1.33c-1.618-.886-2.896-2.118-3.835-3.698-.883-1.486-1.35-3.158-1.402-5.015l-.005-.35V9.813c0-.516-.13-.983-.389-1.402-.259-.42-.598-.758-1.02-1.016-.42-.257-.889-.386-1.407-.386s-.987.129-1.408.386c-.42.258-.752.597-.995 1.016-.212.366-.332.77-.358 1.21l-.006.192v14.845H0V10.394c0-2.03.461-3.82 1.383-5.366.923-1.547 2.201-2.772 3.835-3.674C6.853.45 8.69 0 10.728 0zM7.955 27.045V35H0v-7.955h7.955zM35 0v7.955h-7.955V0H35z"/>
</svg>
