<svg height="80" viewBox="0 0 80 80" width="80" xmlns="http://www.w3.org/2000/svg"><g fill="none" fill-rule="evenodd"><circle cx="40" cy="40" fill="#192332" r="40"/><path d="m31.638 17.333c2.761 0 5.22.602 7.378 1.805s3.862 2.836 5.113 4.899c1.178 1.941 1.802 4.168 1.871 6.68l.006.475v19.723c0 .688.173 1.322.518 1.902s.788 1.031 1.327 1.353c.54.323 1.133.484 1.78.484.69 0 1.327-.161 1.91-.484.582-.322 1.046-.773 1.391-1.353.302-.508.472-1.057.51-1.646l.008-.256-.056-19.794h10.606v19.02c0 2.665-.626 5.05-1.877 7.156-1.251 2.105-2.956 3.749-5.113 4.93-2.158 1.183-4.596 1.773-7.314 1.773-2.719 0-5.157-.59-7.314-1.773-2.158-1.181-3.862-2.825-5.113-4.93-1.178-1.982-1.802-4.211-1.87-6.688l-.007-.467v-19.724c0-.687-.173-1.31-.518-1.87-.345-.558-.798-1.009-1.36-1.353-.56-.344-1.186-.515-1.876-.515s-1.317.171-1.877.515c-.561.344-1.004.795-1.327 1.354-.284.489-.443 1.027-.478 1.614l-.008.255v19.794h-10.615v-19.02c0-2.708.615-5.093 1.845-7.155 1.23-2.063 2.934-3.696 5.113-4.899 2.18-1.203 4.628-1.805 7.347-1.805zm-3.699 36.06v10.607h-10.606v-10.606h10.607zm36.061-36.059v10.606h-10.606v-10.607h10.606z" fill="#73fdea" fill-rule="nonzero"/></g></svg>