<svg height="18" viewBox="0 0 15 18" width="15" xmlns="http://www.w3.org/2000/svg"><path d="m9.125 5.267s4.875 3.733 4.875 9.066c0 1.473-1.213 2.667-2.708 2.667h-7.584c-1.495 0-2.708-1.194-2.708-2.667 0-5.333 4.875-9.066 4.875-9.066s-3.25-2.774-3.25-3.734 2.167.534 3.25.534c1.544 0 1.706-1.067 2.708-1.067s1.11 1.093 2.709 1.093c.623 0-.542 1.6-2.167 3.174zm-3.25 0h3.52c1.267.079 2.52-.3 3.522-1.067m-.542 2.133a1.77 1.77 0 0 1 1.625.8m-4.902 2.4a1.618 1.618 0 0 0 -1.598-1.333c-.894 0-1.625.587-1.625 1.467s.813 1.28 1.625 1.466m-1.625 1.334c0 .883.728 1.6 1.625 1.6.894 0 1.625-.587 1.625-1.467s-.813-1.28-1.625-1.467m0-2.933v-.8m0 7.467v-.8" fill="none" stroke="#73fdea" stroke-linecap="round" stroke-linejoin="round"/></svg>