<svg height="18" viewBox="0 0 15 18" width="15" xmlns="http://www.w3.org/2000/svg"><path d="m8.357 1c-3.59 0-6.155 1.389-6.155 4.274v2.67a5.43 5.43 0 0 1 -1.026 2.138c-.23.24-.308.668.23.828.54.16.642.107.693.454.052.347-.153.748.154.855.308.107.026.454.334.72.307.268-.257 1.39.872 1.39h1.205c.59 0 .616.454.616 1.068 0 .615-.513 1.603-.513 1.603h7.181s-1.026-1.095-1.026-2.137c0-1.603 3.078-4.14 3.078-8.547 0-4.408-3.078-5.316-5.643-5.316zm-.153 3.74-1.385 2.136h2.564l-1.282 1.977m2.257-4.594a2.782 2.782 0 0 0 -2.2-1.12 2.78 2.78 0 0 0 -2.211 1.093c-1.065.176-1.818 1.18-1.723 2.298.094 1.118 1.004 1.97 2.082 1.95h.18a2.706 2.706 0 0 0 3.308 0h.102c1.046.002 1.926-.814 2.045-1.896.118-1.082-.564-2.083-1.583-2.325z" fill="none" stroke="#73fdea" stroke-linecap="round" stroke-linejoin="round"/></svg>